<svg version="1.1" xmlns="http://www.w3.org/2000/svg" viewBox="-10.500001 -12.599852311212 21.000002 22.88712146147264" fill="none" stroke="black" stroke-width="0.6%" vector-effect="non-scaling-stroke">
    <path d="M -6.71751 -10.19169 A 9.5 4.80778 360 0 1 9.5 -6.79207 A 9.5 4.80778 360 0 1 -9.5 -6.79207 A 9.5 4.80778 360 0 1 -6.71751 -10.19169 Z" />
    <path d="M -9.5 -6.14521 A 9.5 4.80778 180 0 0 9.5 -6.14521" />
    <path d="M 7.07107 7.06745 A 3 1.82961 243.15685 0 1 6.3044 8.67062 L 5.59729 9.02848 A 3 1.82961 243.15685 0 1 2.12132 5.27818" />
    <path d="M 7.07107 -2.93448 L 7.07107 7.06745" />
    <path d="M 6.36396 -2.57563 L 6.36396 7.4253 A 3 1.82961 243.15685 0 1 5.59729 9.02848" />
    <path d="M 2.12132 1.82824 A 3 1.82961 63.15685 0 0 0.68245 -1.34985" />
    <path d="M 2.12132 1.82824 L 2.12132 5.27818" />
    <path d="M -6.0988 7.5595 L -6.0988 -2.45898" />
    <path d="M -6.8059 7.20164 L -6.8059 -2.79092" />
    <path d="M -6.03923 8.80482 A 3 1.82961 116.84315 0 1 -6.8059 7.20164" />
    <path d="M -1.41421 2.7732 A 3 1.82961 243.15685 0 1 -1.85616 4.13036" />
    <path d="M -1.41421 0.15796 L -1.41421 2.7732" />
    <path d="M 2.12132 4.26455 A 3 1.82961 116.84315 0 1 1.67938 2.9074 L 1.67938 0.02376" />
    <path d="M -0.27557 -1.33945 A 3 1.82961 296.84315 0 0 -1.85616 1.96243" />
    <path d="M -1.85616 5.41237 L -1.85616 1.96243" />
    <path d="M -1.85616 5.41237 A 3 1.82961 116.84315 0 1 -5.33212 9.16267 A 3 1.82961 116.84315 0 1 -6.0988 7.5595 L -6.8059 7.20164" />
    <path d="M -1.85616 2.99686 L -1.41421 2.7732" />
    <path d="M 2.12132 3.13105 L 1.67938 2.9074" />
    <path d="M 6.36396 7.4253 L 7.07107 7.06745" />
    <path d="M -9.5 -6.79207 L -9.5 -6.14521" />
    <path d="M 9.5 -6.79207 L 9.5 -6.14521" />
    <path d="M -6.03923 8.80482 L -5.33212 9.16267" />
</svg>