<svg version="1.1" xmlns="http://www.w3.org/2000/svg" viewBox="-7.805903768920522 -10.78011708529868 15.876972580786 21.082357093500907" fill="none" stroke="black" stroke-width="0.6%" vector-effect="non-scaling-stroke">
    <path d="M 4.53137 -4.41716 A 5.5 2.89513 180 0 0 5.5 -6.05799" />
    <path d="M 3.88909 -4.01083 A 5.5 2.89513 180 0 0 4.53137 -4.41716" />
    <path d="M -3.61487 -3.87601 A 5.5 2.89513 180 0 0 3.88909 -4.01083 L 6.36396 -2.70808 L 6.36396 7.49485 L 7.07107 7.12264 A 3 1.80364 242.23824 0 1 6.34714 8.66068 L 5.64003 9.03289 A 3 1.80364 242.23824 0 1 2.12132 5.26158" />
    <path d="M -4.30584 -4.25672 A 5.5 2.89513 180 0 0 -3.61487 -3.87601" />
    <path d="M -5.5 -6.05799 A 5.5 2.89513 180 0 0 -4.30584 -4.25672 L -6.8059 -2.94072" />
    <path d="M -3.88909 -8.74284 A 5.5 2.89513 360 0 1 5.5 -6.69568 A 5.5 2.89513 360 0 1 -5.5 -6.69568 A 5.5 2.89513 360 0 1 -3.88909 -8.74284 Z" />
    <path d="M -5.65685 -9.78012 L -3.78638 -8.79552" />
    <path d="M -6.36396 -9.4079 L -5.65685 -9.78012" />
    <path d="M -4.44734 -8.39902 L -6.36396 -9.4079" />
    <path d="M 4.66121 -8.23244 L 6.62913 -9.26832 L 6.62913 -3.31293" />
    <path d="M 6.62913 -9.26832 L 5.92202 -9.64054 L 4.04941 -8.65482" />
    <path d="M 6.36396 -2.70808 L 7.07107 -3.0803 L 7.07107 7.12264" />
    <path d="M 7.07107 -3.0803 L 4.53137 -4.41716" />
    <path d="M -6.0988 -2.5685 L -3.61487 -3.87601" />
    <path d="M -6.0988 -2.5685 L -6.8059 -2.94072" />
    <path d="M -1.41421 2.65609 A 3 1.80364 242.23824 0 1 -1.85616 3.98184" />
    <path d="M -1.41421 0.20917 L -1.41421 2.65609" />
    <path d="M -6.36396 -3.17335 L -6.36396 -9.4079" />
    <path d="M 2.12132 4.12142 A 3 1.80364 117.76176 0 1 1.67938 2.79567 L 1.67938 0.06959" />
    <path d="M 0.26517 -1.66719 L 0.26517 -3.16623" />
    <path d="M 0.26517 -1.66719 A 3 1.80364 297.76176 0 0 -1.85616 2.00018" />
    <path d="M -1.85616 5.40116 L -1.85616 2.00018" />
    <path d="M -1.85616 5.40116 A 3 1.80364 117.76176 0 1 -5.37486 9.17247 A 3 1.80364 117.76176 0 1 -6.0988 7.63443 L -6.8059 7.26222 L -6.8059 -2.94072" />
    <path d="M -6.0988 7.63443 L -6.0988 -2.5685" />
    <path d="M 2.12132 1.8606 A 3 1.80364 62.23824 0 0 0.24855 -1.65837" />
    <path d="M 2.12132 1.8606 L 2.12132 5.26158" />
    <path d="M 6.36396 7.49485 A 3 1.80364 242.23824 0 1 5.64003 9.03289" />
    <path d="M -6.08197 8.80026 A 3 1.80364 117.76176 0 1 -6.8059 7.26222" />
    <path d="M -1.85616 2.88873 L -1.41421 2.65609" />
    <path d="M 2.12132 3.02831 L 1.67938 2.79567" />
    <path d="M -5.5 -6.69568 L -5.5 -6.05799" />
    <path d="M 5.5 -6.69568 L 5.5 -6.05799" />
    <path d="M -6.08197 8.80026 L -5.37486 9.17247" />
</svg>