<svg version="1.1" xmlns="http://www.w3.org/2000/svg" viewBox="-11.000001000000001 -12.747955187203937 22.000002000000002 23.017588549607936" fill="none" stroke="black" stroke-width="0.6%" vector-effect="non-scaling-stroke">
    <path d="M -7.07107 -10.32161 A 10 4.86985 360 1 1 -8.77583 -9.21284 A 10 4.86985 360 0 1 10 -6.87811 A 10 4.86985 360 1 1 -8.77583 -9.21284 A 10 4.86985 360 1 1 -10 -6.87811 A 10 4.86985 360 0 1 -8.77583 -9.21284 A 10 4.86985 360 0 1 -7.07107 -10.32161 Z" />
    <path d="M -10 -6.22305 A 10 4.86985 180 1 0 8.77583 -8.55778 A 10 4.86985 180 1 0 10 -6.22305" />
    <path d="M 7.07107 7.01268 A 3 1.85278 244.03463 0 1 5.30383 8.73553 A 3 1.85278 244.03463 1 1 6.26323 8.6768 L 5.55612 9.02115 A 3 1.85278 244.03463 0 1 4.59672 9.07988 A 3 1.85278 244.03463 0 1 2.12132 5.29093" />
    <path d="M 7.07107 -2.77955 L 7.07107 7.01268" />
    <path d="M 2.12132 1.79728 A 3 1.85278 64.03463 0 0 -1.9513 -1.21385 A 3 1.85278 64.03463 1 0 0.70334 -1.36526" />
    <path d="M 2.12132 1.79728 L 2.12132 5.29093" />
    <path d="M 6.36396 7.35703 A 3 1.85278 244.03463 0 1 4.59672 9.07988 A 3 1.85278 244.03463 1 1 5.55612 9.02115" />
    <path d="M 6.36396 -2.46663 L 6.36396 7.35703 L 7.07107 7.01268" />
    <path d="M -1.41421 2.88048 A 3 1.85278 244.03463 0 1 -3.18145 4.60333 A 3 1.85278 244.03463 1 1 -1.85616 4.2661" />
    <path d="M -1.41421 0.11036 L -1.41421 2.88048" />
    <path d="M 2.12132 4.39523 A 3 1.85278 115.96537 1 1 5.752 -0.00153 A 3 1.85278 115.96537 1 1 1.67938 3.00961 L 1.67938 -0.01877" />
    <path d="M -0.30182 -1.35542 A 3 1.85278 295.96537 0 0 -0.08892 3.64927 A 3 1.85278 295.96537 1 0 -1.85616 1.92642" />
    <path d="M -1.85616 5.42006 L -1.85616 1.92642" />
    <path d="M -1.85616 5.42006 A 3 1.85278 115.96537 1 1 -2.02618 4.47502 A 3 1.85278 115.96537 0 1 -5.29096 9.15028 A 3 1.85278 115.96537 1 1 -2.02618 4.47502 A 3 1.85278 115.96537 1 1 -6.0988 7.48616 L -6.8059 7.14181 L -6.8059 -2.65509" />
    <path d="M -6.0988 7.48616 L -6.0988 -2.36373" />
    <path d="M -5.99807 8.80593 A 3 1.85278 115.96537 1 1 -2.73328 4.13067 A 3 1.85278 115.96537 1 1 -6.8059 7.14181" />
    <path d="M -1.85616 3.09569 L -1.41421 2.88048" />
    <path d="M 2.12132 3.22483 L 1.67938 3.00961" />
    <path d="M -10 -6.87811 L -10 -6.22305" />
    <path d="M 10 -6.87811 L 10 -6.22305" />
    <path d="M -5.99807 8.80593 L -5.29096 9.15028" />
</svg>