<svg version="1.1" xmlns="http://www.w3.org/2000/svg" viewBox="-10.500001 -12.597917851384471 21.000002 22.884855634302113" fill="none" stroke="black" stroke-width="0.6%" vector-effect="non-scaling-stroke">
    <path d="M -6.71751 -10.19085 A 9.5 4.80401 360 0 1 9.5 -6.7939 A 9.5 4.80401 360 0 1 -9.5 -6.7939 A 9.5 4.80401 360 0 1 -6.71751 -10.19085 Z" />
    <path d="M -9.5 -6.14686 A 9.5 4.80401 180 0 0 9.5 -6.14686" />
    <path d="M 7.07107 7.06634 A 3 1.8301 243.17493 0 1 6.30355 8.67078 L 5.59644 9.02836 A 3 1.8301 243.17493 0 1 2.12132 5.27847" />
    <path d="M 7.07107 -2.93865 L 7.07107 7.06634" />
    <path d="M 6.36396 -2.58008 L 6.36396 7.42391 A 3 1.8301 243.17493 0 1 5.59644 9.02836" />
    <path d="M 2.12132 1.8276 A 3 1.8301 63.17493 0 0 0.67755 -1.35508" />
    <path d="M 2.12132 1.8276 L 2.12132 5.27847" />
    <path d="M -6.0988 7.558 L -6.0988 -2.46352" />
    <path d="M -6.8059 7.20043 L -6.8059 -2.79521" />
    <path d="M -6.03839 8.80487 A 3 1.8301 116.82507 0 1 -6.8059 7.20043" />
    <path d="M -1.41421 2.77545 A 3 1.8301 243.17493 0 1 -1.85616 4.13321" />
    <path d="M -1.41421 0.15697 L -1.41421 2.77545" />
    <path d="M 2.12132 4.2673 A 3 1.8301 116.82507 0 1 1.67938 2.90954 L 1.67938 0.02288" />
    <path d="M -0.27006 -1.34479 A 3 1.8301 296.82507 0 0 -1.85616 1.96169" />
    <path d="M -1.85616 5.41256 L -1.85616 1.96169" />
    <path d="M -1.85616 5.41256 A 3 1.8301 116.82507 0 1 -5.33128 9.16245 A 3 1.8301 116.82507 0 1 -6.0988 7.558 L -6.8059 7.20043" />
    <path d="M -1.85616 2.99894 L -1.41421 2.77545" />
    <path d="M 2.12132 3.13303 L 1.67938 2.90954" />
    <path d="M 6.36396 7.42391 L 7.07107 7.06634" />
    <path d="M -9.5 -6.7939 L -9.5 -6.14686" />
    <path d="M 9.5 -6.7939 L 9.5 -6.14686" />
    <path d="M -6.03839 8.80487 L -5.33128 9.16245" />
</svg>